<svg xmlns="http://www.w3.org/2000/svg" style="display:none">
  <!-- MoodSense Icon Sprite — 15 custom wellness icons. All stroke-based, 24x24. -->

  <symbol id="icon-brain" viewBox="0 0 24 24" fill="none" stroke="currentColor" stroke-width="1.7" stroke-linecap="round" stroke-linejoin="round">
    <path d="M9 3.5a2.5 2.5 0 0 0-2.5 2.5v.5A2.5 2.5 0 0 0 5 11a2.5 2.5 0 0 0 1 4.5V16a2.5 2.5 0 0 0 4 2 2.5 2.5 0 0 0 4 0 2.5 2.5 0 0 0 4-2v-.5A2.5 2.5 0 0 0 19 11a2.5 2.5 0 0 0-1.5-4.5V6A2.5 2.5 0 0 0 15 3.5a2.5 2.5 0 0 0-3 0 2.5 2.5 0 0 0-3 0Z"/>
    <path d="M12 3.5v15"/>
  </symbol>

  <symbol id="icon-journal" viewBox="0 0 24 24" fill="none" stroke="currentColor" stroke-width="1.7" stroke-linecap="round" stroke-linejoin="round">
    <path d="M4 5.5A2.5 2.5 0 0 1 6.5 3H19a1 1 0 0 1 1 1v14a1 1 0 0 1-1 1H6.5A2.5 2.5 0 0 0 4 21.5z"/>
    <path d="M4 5.5v16"/>
    <path d="M9 8h7M9 12h7M9 16h4"/>
  </symbol>

  <symbol id="icon-lightbulb" viewBox="0 0 24 24" fill="none" stroke="currentColor" stroke-width="1.7" stroke-linecap="round" stroke-linejoin="round">
    <path d="M9 18h6"/>
    <path d="M10 21h4"/>
    <path d="M12 3a6 6 0 0 0-4 10.5c.6.6 1 1.3 1 2.5h6c0-1.2.4-1.9 1-2.5A6 6 0 0 0 12 3Z"/>
  </symbol>

  <symbol id="icon-calendar" viewBox="0 0 24 24" fill="none" stroke="currentColor" stroke-width="1.7" stroke-linecap="round" stroke-linejoin="round">
    <rect x="3" y="4.5" width="18" height="16" rx="2"/>
    <path d="M3 9h18M8 3v3M16 3v3"/>
    <path d="M8 13h2M14 13h2M8 17h2"/>
  </symbol>

  <symbol id="icon-trash" viewBox="0 0 24 24" fill="none" stroke="currentColor" stroke-width="1.7" stroke-linecap="round" stroke-linejoin="round">
    <path d="M4 7h16"/>
    <path d="M10 11v6M14 11v6"/>
    <path d="M6 7l1 12a2 2 0 0 0 2 2h6a2 2 0 0 0 2-2l1-12"/>
    <path d="M9 7V5a2 2 0 0 1 2-2h2a2 2 0 0 1 2 2v2"/>
  </symbol>

  <symbol id="icon-edit" viewBox="0 0 24 24" fill="none" stroke="currentColor" stroke-width="1.7" stroke-linecap="round" stroke-linejoin="round">
    <path d="M12 20h9"/>
    <path d="M16.5 3.5a2.12 2.12 0 0 1 3 3L7 19l-4 1 1-4z"/>
  </symbol>

  <symbol id="icon-save" viewBox="0 0 24 24" fill="none" stroke="currentColor" stroke-width="1.7" stroke-linecap="round" stroke-linejoin="round">
    <path d="M5 3h11l3 3v13a2 2 0 0 1-2 2H5a2 2 0 0 1-2-2V5a2 2 0 0 1 2-2z"/>
    <path d="M7 3v6h8V3M7 21v-7h10v7"/>
  </symbol>

  <symbol id="icon-arrow-right" viewBox="0 0 24 24" fill="none" stroke="currentColor" stroke-width="1.7" stroke-linecap="round" stroke-linejoin="round">
    <path d="M5 12h14M13 6l6 6-6 6"/>
  </symbol>

  <symbol id="icon-arrow-left" viewBox="0 0 24 24" fill="none" stroke="currentColor" stroke-width="1.7" stroke-linecap="round" stroke-linejoin="round">
    <path d="M19 12H5M11 18l-6-6 6-6"/>
  </symbol>

  <symbol id="icon-chart" viewBox="0 0 24 24" fill="none" stroke="currentColor" stroke-width="1.7" stroke-linecap="round" stroke-linejoin="round">
    <path d="M3 3v18h18"/>
    <path d="M7 14l3-3 3 3 5-6"/>
  </symbol>

  <symbol id="icon-user" viewBox="0 0 24 24" fill="none" stroke="currentColor" stroke-width="1.7" stroke-linecap="round" stroke-linejoin="round">
    <circle cx="12" cy="8" r="4"/>
    <path d="M4 21c0-4 4-6 8-6s8 2 8 6"/>
  </symbol>

  <symbol id="icon-home" viewBox="0 0 24 24" fill="none" stroke="currentColor" stroke-width="1.7" stroke-linecap="round" stroke-linejoin="round">
    <path d="M3 11l9-8 9 8"/>
    <path d="M5 10v10a1 1 0 0 0 1 1h12a1 1 0 0 0 1-1V10"/>
    <path d="M9 21v-7h6v7"/>
  </symbol>

  <symbol id="icon-heart" viewBox="0 0 24 24" fill="none" stroke="currentColor" stroke-width="1.7" stroke-linecap="round" stroke-linejoin="round">
    <path d="M12 21s-7-4.5-9.5-9A5 5 0 0 1 12 6a5 5 0 0 1 9.5 6c-2.5 4.5-9.5 9-9.5 9z"/>
  </symbol>

  <symbol id="icon-spark" viewBox="0 0 24 24" fill="none" stroke="currentColor" stroke-width="1.7" stroke-linecap="round" stroke-linejoin="round">
    <path d="M12 3v4M12 17v4M3 12h4M17 12h4M6 6l2.5 2.5M15.5 15.5L18 18M18 6l-2.5 2.5M8.5 15.5L6 18"/>
    <circle cx="12" cy="12" r="3"/>
  </symbol>

  <symbol id="icon-shield" viewBox="0 0 24 24" fill="none" stroke="currentColor" stroke-width="1.7" stroke-linecap="round" stroke-linejoin="round">
    <path d="M12 3l8 3v6c0 5-3.5 8-8 9-4.5-1-8-4-8-9V6z"/>
    <path d="M9 12l2 2 4-4"/>
  </symbol>

</svg>
